<?xml version="1.0" encoding="UTF-8" standalone="no"?>
<!-- Created with Inkscape (http://www.inkscape.org/) -->

<svg
   xmlns:dc="http://purl.org/dc/elements/1.1/"
   xmlns:cc="http://creativecommons.org/ns#"
   xmlns:rdf="http://www.w3.org/1999/02/22-rdf-syntax-ns#"
   xmlns:svg="http://www.w3.org/2000/svg"
   xmlns="http://www.w3.org/2000/svg"
   version="1.1"
   width="712.42499"
   height="137.9325"
   id="svg2">
  <defs
     id="defs4">
    <clipPath
       id="clipPath2999">
      <path
         d="m 0,595.276 841.89,0 L 841.89,0 0,0 0,595.276 z"
         id="path3001" />
    </clipPath>
    <clipPath
       id="clipPath3073">
      <path
         d="m 0,595.276 841.89,0 L 841.89,0 0,0 0,595.276 z"
         id="path3075" />
    </clipPath>
  </defs>
  <metadata
     id="metadata7">
    <rdf:RDF>
      <cc:Work
         rdf:about="">
        <dc:format>image/svg+xml</dc:format>
        <dc:type
           rdf:resource="http://purl.org/dc/dcmitype/StillImage" />
        <dc:title></dc:title>
      </cc:Work>
    </rdf:RDF>
  </metadata>
  <g
     transform="translate(-0.93036,-3.39594)"
     id="layer1">
    <g
       transform="matrix(1.25,0,0,-1.25,-159.24714,453.53969)"
       id="g3067">
      <g
         id="g3069">
        <g
           clip-path="url(#clipPath3073)"
           id="g3071">
          <path
             d="m 156.344,344.745 c 0,0 15.21,-10.51 9.061,-34.605 -6.147,-24.099 22.603,-44.573 22.603,-44.573 0,0 -16.885,17.794 -9.831,43.933 6.006,22.255 -21.833,35.245 -21.833,35.245"
             id="path3077"
             style="fill:#1ea6e6;fill-opacity:1;fill-rule:nonzero;stroke:none" />
          <path
             d="m 128.142,350.428 c 0,0 15.207,-10.512 9.06,-34.609 -6.152,-24.096 22.603,-44.57 22.603,-44.57 0,0 -16.885,17.792 -9.831,43.932 6.004,22.255 -21.832,35.247 -21.832,35.247"
             id="path3079"
             style="fill:#404040;fill-opacity:1;fill-rule:nonzero;stroke:none" />
          <path
             d="m 213.494,325.85 9.235,0 0,-6.499 0.171,-0.171 c 2.907,4.874 7.952,7.867 13.767,7.867 9.578,0 15.649,-5.131 15.649,-15.05 l 0,-30.357 -9.748,0 0,27.792 c -0.171,6.926 -2.908,9.919 -8.638,9.919 -6.497,0 -10.689,-5.13 -10.689,-11.63 l 0,-26.081 -9.747,0 0,44.21 z"
             id="path3081"
             style="fill:#ffffff;fill-opacity:1;fill-rule:nonzero;stroke:none" />
          <path
             d="m 259.841,325.85 9.75,0 0,-44.21 -9.75,0 0,44.21 z m 0,16.846 9.75,0 0,-9.236 -9.75,0 0,9.236 z"
             id="path3083"
             style="fill:#ffffff;fill-opacity:1;fill-rule:nonzero;stroke:none" />
          <path
             d="m 274.891,325.85 7.353,0 0,13.255 9.75,0 0,-13.255 8.808,0 0,-7.268 -8.808,0 0,-23.602 c 0,-4.02 0.341,-6.072 4.702,-6.072 1.368,0 2.737,0 4.106,0.342 l 0,-7.524 c -2.139,-0.172 -4.192,-0.514 -6.328,-0.514 -10.177,0 -12.058,3.934 -12.23,11.288 l 0,26.082 -7.353,0 0,7.268 z"
             id="path3085"
             style="fill:#ffffff;fill-opacity:1;fill-rule:nonzero;stroke:none" />
          <path
             d="m 337.656,303.788 c 0,7.61 -3.848,15.563 -12.57,15.563 -8.722,0 -12.57,-7.953 -12.57,-15.563 0,-7.696 3.848,-15.649 12.57,-15.649 8.722,0 12.57,7.953 12.57,15.649 m -34.89,0 c 0,13.511 8.124,23.259 22.32,23.259 14.194,0 22.318,-9.748 22.318,-23.259 0,-13.597 -8.124,-23.345 -22.318,-23.345 -14.196,0 -22.32,9.748 -22.32,23.345"
             id="path3087"
             style="fill:#ffffff;fill-opacity:1;fill-rule:nonzero;stroke:none" />
          <path
             d="m 353.389,325.85 9.148,0 0,-8.551 0.172,0 c 1.111,4.703 6.926,9.748 12.914,9.748 2.222,0 2.82,-0.172 3.676,-0.256 l 0,-9.406 c -1.368,0.17 -2.823,0.427 -4.192,0.427 -6.669,0 -11.971,-5.388 -11.971,-15.136 l 0,-21.036 -9.747,0 0,44.21 z"
             id="path3089"
             style="fill:#ffffff;fill-opacity:1;fill-rule:nonzero;stroke:none" />
          <path
             d="m 422.653,311.997 c -0.597,7.781 -6.926,11.8 -14.88,11.8 -11.03,0 -16.931,-9.748 -16.931,-19.753 0,-11.886 5.56,-20.608 16.931,-20.608 8.209,0 14.197,5.642 15.308,13.682 l 3.249,0 c -1.454,-10.518 -9.065,-16.505 -18.557,-16.505 -14.28,0 -20.179,11.203 -20.179,23.431 0,12.228 7.182,22.575 20.179,22.575 9.492,0 17.189,-4.617 18.13,-14.622 l -3.25,0 z"
             id="path3091"
             style="fill:#1ea6e6;fill-opacity:1;fill-rule:nonzero;stroke:none" />
          <path
             d="m 436.333,315.844 0.258,0 c 1.709,5.73 8.893,10.348 16.845,10.006 l 0,-3.249 c -3.419,0.427 -8.209,-0.429 -12.144,-4.276 -3.247,-3.335 -4.616,-6.072 -4.959,-12.656 l 0,-24.029 -3.25,0 0,43.953 3.25,0 0,-9.749 z"
             id="path3093"
             style="fill:#1ea6e6;fill-opacity:1;fill-rule:nonzero;stroke:none" />
          <path
             d="m 489.522,306.011 c -0.17,9.235 -5.984,17.786 -16.075,17.786 -9.749,0 -15.478,-9.064 -16.163,-17.786 l 32.238,0 z m -32.238,-2.822 c -0.169,-10.347 5.303,-19.753 16.163,-19.753 8.296,0 14.195,4.96 15.735,13.083 l 3.25,0 c -1.712,-10.262 -8.553,-15.906 -18.985,-15.906 -12.827,0 -19.582,10.09 -19.411,22.234 -0.171,12.057 6.157,23.772 19.411,23.772 13.768,0 19.924,-10.859 19.325,-23.43 l -35.488,0 z"
             id="path3095"
             style="fill:#1ea6e6;fill-opacity:1;fill-rule:nonzero;stroke:none" />
          <path
             d="m 528.686,306.61 c -2.566,-2.908 -9.578,-2.566 -15.906,-3.421 -7.694,-0.856 -12.057,-3.592 -12.057,-10.175 0,-5.303 3.847,-9.578 11.545,-9.578 14.795,0 16.418,12.656 16.418,14.964 l 0,8.21 z m 3.25,-16.846 c 0,-2.567 0,-5.303 2.906,-5.303 0.598,0 1.369,0.086 2.396,0.257 l 0,-2.736 c -0.941,-0.171 -1.798,-0.342 -2.651,-0.342 -5.131,0 -5.901,2.821 -5.901,6.414 l 0,2.307 -0.171,0 c -2.051,-5.215 -7.952,-9.748 -16.333,-9.748 -8.295,0 -14.707,3.164 -14.707,12.401 0,10.26 8.893,12.399 16.161,12.997 14.537,1.026 15.135,1.966 15.135,9.15 0,1.966 -2.224,8.636 -12.229,8.636 -7.865,0 -13.083,-4.104 -13.51,-11.715 l -3.249,0 c 0.427,9.664 6.413,14.537 16.759,14.537 7.697,0 15.394,-2.394 15.394,-11.458 l 0,-25.397 z"
             id="path3097"
             style="fill:#1ea6e6;fill-opacity:1;fill-rule:nonzero;stroke:none" />
          <path
             d="m 557.589,322.771 -9.578,0 0,-30.699 c 0,-7.097 3.336,-7.781 9.492,-7.611 l 0,-2.821 c -6.671,-0.428 -13.083,0.512 -12.742,10.432 l 0,30.699 -8.123,0 0,2.822 8.123,0 0,13.682 3.25,0 0,-13.682 9.578,0 0,-2.822 z"
             id="path3099"
             style="fill:#1ea6e6;fill-opacity:1;fill-rule:nonzero;stroke:none" />
          <path
             d="m 563.488,325.593 3.249,0 0,-43.953 -3.249,0 0,43.953 z m 0,17.103 3.249,0 0,-8.808 -3.249,0 0,8.808 z"
             id="path3101"
             style="fill:#1ea6e6;fill-opacity:1;fill-rule:nonzero;stroke:none" />
          <path
             d="m 594.358,283.436 c 11.03,0 16.931,9.663 16.931,20.18 0,10.519 -5.901,20.181 -16.931,20.181 -11.032,0 -16.933,-9.662 -16.933,-20.181 0,-10.517 5.901,-20.18 16.933,-20.18 m 0,43.183 c 12.912,0 20.181,-10.517 20.181,-23.003 0,-12.484 -7.269,-23.003 -20.181,-23.003 -12.914,0 -20.181,10.519 -20.181,23.003 0,12.486 7.267,23.003 20.181,23.003"
             id="path3103"
             style="fill:#1ea6e6;fill-opacity:1;fill-rule:nonzero;stroke:none" />
          <path
             d="m 621.292,325.593 3.25,0 0,-9.406 0.171,0 c 2.223,6.584 8.893,10.432 15.734,10.432 15.478,0 15.649,-12.398 15.649,-17.786 l 0,-27.193 -3.25,0 0,27.792 c 0,4.531 -0.512,14.365 -12.485,14.365 -9.833,0 -15.819,-7.61 -15.819,-18.384 l 0,-23.773 -3.25,0 0,43.953 z"
             id="path3105"
             style="fill:#1ea6e6;fill-opacity:1;fill-rule:nonzero;stroke:none" />
          <path
             d="m 666.355,296.263 c 0.513,-8.124 6.586,-12.827 14.539,-12.827 5.729,0 13.938,1.71 13.938,9.321 0,7.439 -7.524,8.551 -15.05,10.09 -7.611,1.539 -15.136,3.507 -15.136,12.485 0,8.722 8.464,11.287 15.904,11.287 9.323,0 16.249,-4.018 16.249,-14.023 l -3.249,0 c -0.086,7.953 -5.645,11.201 -13,11.201 -5.985,0 -12.656,-2.223 -12.656,-8.465 0,-7.013 7.527,-8.124 14.624,-9.663 8.721,-1.625 15.564,-3.678 15.564,-12.912 0,-9.492 -9.492,-12.144 -17.188,-12.144 -10.005,0 -17.531,5.387 -17.788,15.65 l 3.249,0 z"
             id="path3107"
             style="fill:#1ea6e6;fill-opacity:1;fill-rule:nonzero;stroke:none" />
          <path
             d="m 136.37,360.115 c 0,0 21.194,-14.653 12.623,-48.235 -8.566,-33.581 31.504,-62.111 31.504,-62.111 0,0 -23.536,24.79 -13.705,61.22 8.374,31.021 -30.422,49.126 -30.422,49.126"
             id="path3109"
             style="fill:#ffffff;fill-opacity:1;fill-rule:nonzero;stroke:none" />
        </g>
      </g>
    </g>
  </g>
</svg>
